<?xml version="1.0" encoding="utf-8"?>
<!-- Generator: Adobe Illustrator 27.5.0, SVG Export Plug-In . SVG Version: 6.00 Build 0)  -->
<svg version="1.1" id="Layer_1" xmlns="http://www.w3.org/2000/svg" xmlns:xlink="http://www.w3.org/1999/xlink" x="0px" y="0px"
	 viewBox="0 0 1042.28 805.89" style="enable-background:new 0 0 1042.28 805.89;" xml:space="preserve">
<style type="text/css">
	.st0{fill:#FFFFFF;}
	.st1{fill:none;stroke:#000000;stroke-width:4;stroke-linejoin:round;}
	.st2{fill:none;stroke:#000000;stroke-width:4;}
	.st3{fill:#4C96BD;}
	.st4{fill:#4F97C5;}
	.st5{clip-path:url(#SVGID_00000162340943962672605570000012671526573282822834_);}
	.st6{clip-path:url(#SVGID_00000162340943962672605570000012671526573282822834_);fill:none;stroke:#000000;stroke-width:4;}
	
		.st7{clip-path:url(#SVGID_00000103259996658190310660000013005837727288647341_);fill:none;stroke:#000000;stroke-width:4;stroke-linejoin:round;}
	.st8{clip-path:url(#SVGID_00000103259996658190310660000013005837727288647341_);fill:#FFCC00;}
	.st9{fill:#FFCC00;}
	.st10{fill:#CB993E;}
</style>
<g>
	<path class="st0" d="M597.62,362.5c0,0-4.54-35.43-14.4-64.46c-7.68,7.46-18.1,10.71-18.1,10.71l-12.5-35l-20,37.5
		c0,0-10-27.5-22.5-30l-20,27.5c-10.07-3.36-16.45-8.55-20.5-13.68c-5.72,15.17-17.38,50.16-14.68,76.9c0,0,0.51-0.51,1.29-1.28
		c-11.71,11.96-33.76,40.04-43.61,89.31c0,0,112.5,66.25,235-5C647.62,455,638.87,393.75,597.62,362.5"/>
	<path class="st1" d="M597.62,362.5c0,0-4.54-35.43-14.4-64.46c-7.68,7.46-18.1,10.71-18.1,10.71l-12.5-35l-20,37.5
		c0,0-10-27.5-22.5-30l-20,27.5c-10.07-3.36-16.45-8.55-20.5-13.68c-5.72,15.17-17.38,50.16-14.68,76.9c0,0,0.51-0.51,1.29-1.28
		c-11.71,11.96-33.76,40.04-43.61,89.31c0,0,112.5,66.25,235-5C647.62,455,638.87,393.75,597.62,362.5L597.62,362.5z"/>
	<path class="st0" d="M454.93,371.97c-2.7-26.75,8.96-61.73,14.68-76.9c-4.04-5.11-5.76-10.15-6.48-13.25
		c-9.77,1.3-27.87,5.54-41.77,19.43c0,0,6.55,53.47,25.77,79.87c2.94-3.75,13.38-15.6,16.51-18.73
		C462.83,363.19,454.93,371.97,454.93,371.97"/>
	<path class="st2" d="M454.93,371.97c-2.7-26.75,8.96-61.73,14.68-76.9c-4.04-5.11-5.76-10.15-6.48-13.25
		c-9.77,1.3-27.87,5.54-41.77,19.43c0,0,6.55,53.47,25.77,79.87c2.94-3.75,13.38-15.6,16.51-18.73
		C462.83,363.19,454.93,371.97,454.93,371.97L454.93,371.97z"/>
	<path class="st3" d="M638.51,460.03c-95.59,50.6-183.46,19.84-214.25,5.81c2.72,8.64,8.96,24.55,19.61,31.65l1.1,180.05
		c12.02,6.73,45.71,20.71,93.15,0.95c0,0,31.43,17.06,86.64,1.82l-3.39-172.82C621.37,507.5,636.06,494.88,638.51,460.03"/>
	<path class="st2" d="M638.51,460.03c-95.59,50.6-183.46,19.84-214.25,5.81c2.72,8.64,8.96,24.55,19.61,31.65l1.1,180.05
		c12.02,6.73,45.71,20.71,93.15,0.95c0,0,31.43,17.06,86.64,1.82l-3.39-172.82C621.37,507.5,636.06,494.88,638.51,460.03
		L638.51,460.03z"/>
	<path class="st4" d="M538.12,678.5c-47.44,19.77-81.12,5.78-93.15-0.95l0.15,23.7c0,0,50,21.25,93.75,1.25
		c0,0,53.75,13.75,86.25-3.75l-0.36-18.43C569.55,695.55,538.12,678.5,538.12,678.5"/>
	<path class="st2" d="M538.12,678.5c-47.44,19.77-81.12,5.78-93.15-0.95l0.15,23.7c0,0,50,21.25,93.75,1.25
		c0,0,53.75,13.75,86.25-3.75l-0.36-18.43C569.55,695.55,538.12,678.5,538.12,678.5L538.12,678.5z M539.12,712.5v-171 M507.11,534.5
		c0,0,27,15,58,0"/>
	<g>
		<defs>
			<rect id="SVGID_1_" x="322" y="29.39" width="419.35" height="729.99"/>
		</defs>
		<clipPath id="SVGID_00000118389289873017066060000015802042953452701361_">
			<use xlink:href="#SVGID_1_"  style="overflow:visible;"/>
		</clipPath>
		<path style="clip-path:url(#SVGID_00000118389289873017066060000015802042953452701361_);" d="M620.75,700.86
			c-32.72,14.21-81.88,1.64-81.88,1.64c-39.92,18.25-85.04,2.16-92.63-0.8c-8.27,9.12-23.62,27.67-23.62,39.55
			c0,0,18.75,16.25,56.25,16.25c0,0,20-1.25,36.25-12.5c16.25-11.25,25-8.75,25-8.75l5,2.5h7.5c0,0,10,18.75,42.5,18.75
			s38.75-5,51.25-21.25C646.37,736.25,645.33,716.63,620.75,700.86"/>
		
			<path style="clip-path:url(#SVGID_00000118389289873017066060000015802042953452701361_);fill:none;stroke:#000000;stroke-width:4;" d="
			M620.75,700.86c-32.72,14.21-81.88,1.64-81.88,1.64c-39.92,18.25-85.04,2.16-92.63-0.8c-8.27,9.12-23.62,27.67-23.62,39.55
			c0,0,18.75,16.25,56.25,16.25c0,0,20-1.25,36.25-12.5c16.25-11.25,25-8.75,25-8.75l5,2.5h7.5c0,0,10,18.75,42.5,18.75
			s38.75-5,51.25-21.25C646.37,736.25,645.33,716.63,620.75,700.86L620.75,700.86z"/>
	</g>
	<path class="st0" d="M476.36,255l-13.75,23.75c0,0,1.25,21.25,27.5,30l20-27.5C510.11,281.25,480.11,265,476.36,255"/>
	<path class="st1" d="M476.36,255l-13.75,23.75c0,0,1.25,21.25,27.5,30l20-27.5C510.11,281.25,480.11,265,476.36,255L476.36,255z"/>
	<path class="st0" d="M552.62,273.75l12.5,35c0,0,20-6.25,25-21.25l-12.5-31.25C577.62,256.25,578.87,270,552.62,273.75"/>
	<path class="st1" d="M552.62,273.75l12.5,35c0,0,20-6.25,25-21.25l-12.5-31.25C577.62,256.25,578.87,270,552.62,273.75
		L552.62,273.75z"/>
	<path class="st0" d="M630.11,280c-16.32-9.06-35.91-7.61-45.45-6.13l5.45,13.63c-1.39,4.17-3.94,7.67-6.9,10.54
		c9.86,29.04,14.4,64.46,14.4,64.46c2.66,2.02,5.18,4.16,7.58,6.4C634.84,326.12,630.11,280,630.11,280"/>
	<path class="st1" d="M630.11,280c-16.32-9.06-35.91-7.61-45.45-6.13l5.45,13.63c-1.39,4.17-3.94,7.67-6.9,10.54
		c9.86,29.04,14.4,64.46,14.4,64.46c2.66,2.02,5.18,4.16,7.58,6.4C634.84,326.12,630.11,280,630.11,280L630.11,280z"/>
	<polyline class="st0" points="497.38,298.76 510.11,281.25 497.38,298.76 	"/>
	<polygon class="st1" points="497.38,298.76 510.11,281.25 497.38,298.76 	"/>
	<path class="st0" d="M510.11,281.25c12.5,2.5,22.5,30,22.5,30l20-37.5c18.45-2.63,24.66-10.47,25-17.5
		c-9.32-7.28-13.98-7.28-47.77-7.28c-47.99,0-53.48,6.03-53.48,6.03l0.6,1.26C482.53,266.3,510.11,281.25,510.11,281.25"/>
	<g>
		<defs>
			<rect id="SVGID_00000072995147215548009770000004799467807074258330_" x="322" y="29.39" width="419.35" height="729.99"/>
		</defs>
		<clipPath id="SVGID_00000051383211948968757590000014925989455780925883_">
			<use xlink:href="#SVGID_00000072995147215548009770000004799467807074258330_"  style="overflow:visible;"/>
		</clipPath>
		
			<path style="clip-path:url(#SVGID_00000051383211948968757590000014925989455780925883_);fill:none;stroke:#000000;stroke-width:4;stroke-linejoin:round;" d="
			M510.11,281.25c12.5,2.5,22.5,30,22.5,30l20-37.5c18.45-2.63,24.66-10.47,25-17.5c-9.32-7.28-13.98-7.28-47.77-7.28
			c-47.99,0-53.48,6.03-53.48,6.03l0.6,1.26C482.53,266.3,510.11,281.25,510.11,281.25L510.11,281.25z M404.34,324.2
			c-0.28-0.22-0.54-0.47-0.8-0.74C403.79,323.72,404.05,323.97,404.34,324.2L404.34,324.2z M403.04,322.9
			c0.05,0.07,0.11,0.13,0.16,0.2C403.15,323.03,403.1,322.96,403.04,322.9L403.04,322.9z M401.12,319.83
			c-0.11-0.24-0.22-0.5-0.32-0.76l-0.01,0.01C400.79,319.08,400.9,319.38,401.12,319.83L401.12,319.83z"/>
		<path style="clip-path:url(#SVGID_00000051383211948968757590000014925989455780925883_);fill:#FFCC00;" d="M400.8,319.08
			c0.11,0.25,0.21,0.51,0.32,0.76c0.02,0.05,0.05,0.1,0.07,0.15c0.13,0.27,0.27,0.52,0.41,0.77c0.37,0.66,0.85,1.43,1.44,2.14
			c0.06,0.07,0.11,0.14,0.16,0.2c0.11,0.12,0.22,0.24,0.33,0.36c0.26,0.26,0.52,0.52,0.8,0.74c-0.28-0.22-0.55-0.47-0.8-0.74
			c-0.11-0.12-0.22-0.24-0.33-0.36c-0.06-0.06-0.11-0.13-0.16-0.2c-0.53-0.63-1.01-1.34-1.44-2.14c-0.16-0.28-0.29-0.54-0.41-0.77
			c-0.02-0.05-0.05-0.1-0.07-0.15c-0.22-0.46-0.34-0.75-0.34-0.75L400.8,319.08c-5.53-13.1-2.38-41.14-2.38-41.14l21.51-13.45
			c0,0,9.14-4.84,5.38-12.91c-3.76-8.07-10.76-3.77-10.76-3.77c-15.6,3.23-9.68-19.9-9.68-19.9c0.82-4.22-1.51-8.14-4.41-10
			c-7.29-5.71-18.72,2.47-18.72,2.47c0-0.03-0.01-0.06-0.01-0.09c-4.21,6.15-9.22,15.48-3.75,19.46
			c11.83,8.61,20.98-11.83,20.98-11.83s-9.14,20.44-20.98,11.83c-5.47-3.98-0.46-13.31,3.75-19.46
			c-2.7-17.67-10.75-23.03-17.73-21.96c-6.99,1.08-5.38,10.22-4.84,23.67c0.54,13.45-12.37,7.53-12.37,7.53s-15.6-10.22-21.51-0.54
			c-5.92,9.68,10.76,21.51,10.76,21.51c6.45,5.92,0,39.8,0,39.8s-20.44,80.68,22.59,93.05c34.83,10.01,71.43-3.59,84.1-9.13
			c-11.54-20.28-17.61-49.81-20.05-64.3L400.8,319.08"/>
		
			<path style="clip-path:url(#SVGID_00000051383211948968757590000014925989455780925883_);fill:none;stroke:#000000;stroke-width:4;stroke-linejoin:round;" d="
			M400.8,319.08c0.11,0.25,0.21,0.51,0.32,0.76c0.02,0.05,0.05,0.1,0.07,0.15c0.13,0.27,0.27,0.52,0.41,0.77
			c0.37,0.66,0.85,1.43,1.44,2.14c0.06,0.07,0.11,0.14,0.16,0.2c0.11,0.12,0.22,0.24,0.33,0.36c0.26,0.26,0.52,0.52,0.8,0.74
			c-0.28-0.22-0.55-0.47-0.8-0.74c-0.11-0.12-0.22-0.24-0.33-0.36c-0.06-0.06-0.11-0.13-0.16-0.2c-0.53-0.63-1.01-1.34-1.44-2.14
			c-0.16-0.28-0.29-0.54-0.41-0.77c-0.02-0.05-0.05-0.1-0.07-0.15c-0.22-0.46-0.34-0.75-0.34-0.75L400.8,319.08
			c-5.53-13.1-2.38-41.14-2.38-41.14l21.51-13.45c0,0,9.14-4.84,5.38-12.91c-3.76-8.07-10.76-3.77-10.76-3.77
			c-15.6,3.23-9.68-19.9-9.68-19.9c0.82-4.22-1.51-8.14-4.41-10c-7.29-5.71-18.72,2.47-18.72,2.47c0-0.03-0.01-0.06-0.01-0.09
			c-4.21,6.15-9.22,15.48-3.75,19.46c11.83,8.61,20.98-11.83,20.98-11.83s-9.14,20.44-20.98,11.83c-5.47-3.98-0.46-13.31,3.75-19.46
			c-2.7-17.67-10.75-23.03-17.73-21.96c-6.99,1.08-5.38,10.22-4.84,23.67c0.54,13.45-12.37,7.53-12.37,7.53s-15.6-10.22-21.51-0.54
			c-5.92,9.68,10.76,21.51,10.76,21.51c6.45,5.92,0,39.8,0,39.8s-20.44,80.68,22.59,93.05c34.83,10.01,71.43-3.59,84.1-9.13
			c-11.54-20.28-17.61-49.81-20.05-64.3L400.8,319.08L400.8,319.08z M401.19,319.98c0.11,0.23,0.25,0.49,0.41,0.77
			C401.46,320.5,401.32,320.25,401.19,319.98L401.19,319.98z M651.97,297.96c0.28-0.22,0.54-0.47,0.8-0.74
			C652.52,297.49,652.25,297.74,651.97,297.96L651.97,297.96z M653.27,296.67c-0.05,0.07-0.11,0.13-0.16,0.2
			C653.16,296.8,653.21,296.73,653.27,296.67L653.27,296.67z M655.19,293.6c0.11-0.24,0.22-0.5,0.32-0.76l0.01,0
			C655.52,292.85,655.41,293.15,655.19,293.6L655.19,293.6z"/>
		<path style="clip-path:url(#SVGID_00000051383211948968757590000014925989455780925883_);fill:#FFCC00;" d="M739.35,223.57
			c-1.12-8.4-16.54-4.61-16.54-4.61s-12.25,1.83-6.69-10.43c5.55-12.26,8.16-18.77,2.08-22.39c-6.07-3.62-9.49-1.9-21.68,13.47
			c4.21,6.15,1.69,17.52-3.77,21.5c-11.83,8.61-17.72-13.19-17.72-13.19s5.89,21.79,17.72,13.19c5.47-3.98,7.98-15.35,3.77-21.5
			c0,0.03-0.01,0.06-0.02,0.09c0,0-8.68-9.76-21.97-4.88c-5.15,2.17-11.94,11.24-11.12,15.46c0,0,5.02,26.82-10.58,23.6
			c0,0-9.71-3.18-13.48,4.89c-3.76,8.07,5.38,12.91,5.38,12.91l16.63,4.58c0,0-0.32,23.5-5.85,36.6l0.01,0c0,0-0.12,0.3-0.34,0.75
			c-0.02,0.05-0.05,0.1-0.07,0.15c-0.13,0.27-0.27,0.52-0.41,0.77c-0.44,0.8-0.92,1.52-1.44,2.14c-0.05,0.07-0.11,0.13-0.16,0.2
			c-0.11,0.12-0.22,0.25-0.33,0.36c-0.26,0.26-0.52,0.52-0.8,0.74c0.28-0.22,0.54-0.47,0.8-0.74c0.11-0.12,0.22-0.24,0.33-0.36
			c0.06-0.06,0.11-0.13,0.16-0.2c0.59-0.71,1.07-1.48,1.44-2.14c0.14-0.25,0.28-0.5,0.41-0.77c0.02-0.05,0.05-0.1,0.07-0.15
			c0.11-0.24,0.22-0.5,0.32-0.76l-25.19-1.38c-0.49,15.28-4.02,43.66-21.29,71.58c14.42,2.63,39.62-1.68,69.85-10.37
			c43.03-12.37,46.38-68.35,46.38-68.35s-1.08-37.97-9.49-43.4C715.76,240.93,740.44,231.71,739.35,223.57"/>
		
			<path style="clip-path:url(#SVGID_00000051383211948968757590000014925989455780925883_);fill:none;stroke:#000000;stroke-width:4;stroke-linejoin:round;" d="
			M739.35,223.57c-1.12-8.4-16.54-4.61-16.54-4.61s-12.25,1.83-6.69-10.43c5.55-12.26,8.16-18.77,2.08-22.39
			c-6.07-3.62-9.49-1.9-21.68,13.47c4.21,6.15,1.69,17.52-3.77,21.5c-11.83,8.61-17.72-13.19-17.72-13.19s5.89,21.79,17.72,13.19
			c5.47-3.98,7.98-15.35,3.77-21.5c0,0.03-0.01,0.06-0.02,0.09c0,0-8.68-9.76-21.97-4.88c-5.15,2.17-11.94,11.24-11.12,15.46
			c0,0,5.02,26.82-10.58,23.6c0,0-9.71-3.18-13.48,4.89c-3.76,8.07,5.38,12.91,5.38,12.91l16.63,4.58c0,0-0.32,23.5-5.85,36.6
			l0.01,0c0,0-0.12,0.3-0.34,0.75c-0.02,0.05-0.05,0.1-0.07,0.15c-0.13,0.27-0.27,0.52-0.41,0.77c-0.44,0.8-0.92,1.52-1.44,2.14
			c-0.05,0.07-0.11,0.13-0.16,0.2c-0.11,0.12-0.22,0.25-0.33,0.36c-0.26,0.26-0.52,0.52-0.8,0.74c0.28-0.22,0.54-0.47,0.8-0.74
			c0.11-0.12,0.22-0.24,0.33-0.36c0.06-0.06,0.11-0.13,0.16-0.2c0.59-0.71,1.07-1.48,1.44-2.14c0.14-0.25,0.28-0.5,0.41-0.77
			c0.02-0.05,0.05-0.1,0.07-0.15c0.11-0.24,0.22-0.5,0.32-0.76l-25.19-1.38c-0.49,15.28-4.02,43.66-21.29,71.58
			c14.42,2.63,39.62-1.68,69.85-10.37c43.03-12.37,46.38-68.35,46.38-68.35s-1.08-37.97-9.49-43.4
			C715.76,240.93,740.44,231.71,739.35,223.57L739.35,223.57z M655.12,293.75c-0.11,0.23-0.25,0.49-0.41,0.77
			C654.84,294.27,654.99,294.02,655.12,293.75L655.12,293.75z"/>
	</g>
	<path class="st9" d="M529.11,263.81c-16.41,0-30.86-7.98-39.29-20.08l-3.56,22.1c10.05,7.94,23.86,15.42,23.86,15.42
		c12.5,2.5,22.5,30,22.5,30l20-37.5c7.8-1.11,13.15-3.11,16.85-5.37l0.41-26.92C561.72,254.82,546.52,263.81,529.11,263.81"/>
	<g>
		<path class="st1" d="M529.11,263.81c-16.41,0-30.86-7.98-39.29-20.08l-3.56,22.1c10.05,7.94,23.86,15.42,23.86,15.42
			c12.5,2.5,22.5,30,22.5,30l20-37.5c7.8-1.11,13.15-3.11,16.85-5.37l0.41-26.92C561.72,254.82,546.52,263.81,529.11,263.81
			L529.11,263.81z M503.14,59.97c0,0-3.92-28.97,26.62-28.58c23.1,0.3,23.88,26.23,23.88,26.23 M508.21,64.67
			c0,0-3.25-24.04,22.1-23.72c19.17,0.25,19.82,21.77,19.82,21.77 M516.19,62.71c0,0-1.99-14.75,13.55-14.55
			c11.76,0.15,12.16,13.35,12.16,13.35"/>
	</g>
	<path class="st9" d="M579.86,119.71c0,0,11.37-68.74-49.55-68.36c-63.81,0.4-57.72,69.48-57.72,69.48l2.35-0.01
		c-12.5,9.04-1.9,16.84-1.9,16.84l7.13,25.04l6.82,36.83c7.6-14.94,23.67-25.26,42.29-25.32c18.2-0.06,34.01,9.71,41.9,24.05
		l6.5-28.04l6.14-38C588.87,122.03,579.86,119.71,579.86,119.71"/>
	<path class="st1" d="M579.86,119.71c0,0,11.37-68.74-49.55-68.36c-63.81,0.4-57.72,69.48-57.72,69.48l2.35-0.01
		c-12.5,9.04-1.9,16.84-1.9,16.84l7.13,25.04l6.82,36.83c7.6-14.94,23.67-25.26,42.29-25.32c18.2-0.06,34.01,9.71,41.9,24.05
		l6.5-28.04l6.14-38C588.87,122.03,579.86,119.71,579.86,119.71L579.86,119.71z"/>
	<path class="st9" d="M481.37,169.24l-0.15-0.04c0,0-14.49,0.39-11.35,17.62c2.25,12.4,11.41,10.6,16.36,8.62L481.37,169.24"/>
	<path class="st1" d="M481.37,169.24l-0.15-0.04c0,0-14.49,0.39-11.35,17.62c2.25,12.4,11.41,10.6,16.36,8.62L481.37,169.24
		L481.37,169.24z M482.78,175.08c0,0-7.05,2.35-6.66,8.22 M483.45,180.25c-0.14-0.04-0.23-0.07-0.23-0.07s-10.31,9.26,0.7,6.27
		c0.2-0.05,0.38-0.11,0.57-0.16L483.45,180.25L483.45,180.25z"/>
	<path class="st9" d="M578.55,167.68l0.16-0.03c0,0,14.44,1.21,10.34,18.23c-2.95,12.25-11.98,9.94-16.82,7.68L578.55,167.68"/>
	<path class="st1" d="M578.55,167.68l0.16-0.03c0,0,14.44,1.21,10.34,18.23c-2.95,12.25-11.98,9.94-16.82,7.68L578.55,167.68
		L578.55,167.68z M576.81,173.42c0,0,6.9,2.74,6.18,8.58 M575.85,178.55c0.14-0.04,0.23-0.06,0.23-0.06s9.77,9.82-1.05,6.23
		c-0.2-0.07-0.37-0.13-0.56-0.2L575.85,178.55L575.85,178.55z"/>
	<path class="st0" d="M588.49,149.63c0,15.57-12.62,28.19-28.19,28.19c-15.57,0-28.19-12.62-28.19-28.19
		c0-15.57,12.62-28.19,28.19-28.19C575.87,121.44,588.49,134.06,588.49,149.63"/>
	<path class="st1" d="M588.49,149.63c0,15.57-12.62,28.19-28.19,28.19c-15.57,0-28.19-12.62-28.19-28.19
		c0-15.57,12.62-28.19,28.19-28.19C575.87,121.44,588.49,134.06,588.49,149.63L588.49,149.63z"/>
	<path class="st0" d="M524.67,149.63c0,15.57-12.62,28.19-28.19,28.19c-15.57,0-28.19-12.62-28.19-28.19
		c0-15.57,12.62-28.19,28.19-28.19C512.05,121.44,524.67,134.06,524.67,149.63"/>
	<path class="st1" d="M524.67,149.63c0,15.57-12.62,28.19-28.19,28.19c-15.57,0-28.19-12.62-28.19-28.19
		c0-15.57,12.62-28.19,28.19-28.19C512.05,121.44,524.67,134.06,524.67,149.63L524.67,149.63z"/>
	<path d="M571.66,163.72c0,2.16-1.75,3.91-3.92,3.91c-2.16,0-3.91-1.75-3.91-3.91c0-2.16,1.75-3.91,3.91-3.91
		C569.9,159.81,571.66,161.56,571.66,163.72"/>
	<path d="M490.61,163.72c0,2.16-1.75,3.91-3.91,3.91c-2.16,0-3.92-1.75-3.92-3.91c0-2.16,1.75-3.91,3.92-3.91
		C488.86,159.81,490.61,161.56,490.61,163.72"/>
	<path class="st10" d="M576.23,219.01c0,24.74-21.1,44.8-47.12,44.8c-26.02,0-47.12-20.06-47.12-44.8c0-24.74,21.09-44.8,47.12-44.8
		C555.13,174.21,576.23,194.27,576.23,219.01"/>
	<path class="st1" d="M576.23,219.01c0,24.74-21.1,44.8-47.12,44.8c-26.02,0-47.12-20.06-47.12-44.8c0-24.74,21.09-44.8,47.12-44.8
		C555.13,174.21,576.23,194.27,576.23,219.01L576.23,219.01z M517.63,231.45c0,0,5.09-6.66,13.31-5.87 M523.5,248.68
		c0,0,9,3.92,14.09-0.78"/>
	<path d="M533.12,238.72c0,2.16-1.75,3.91-3.91,3.91c-2.16,0-3.92-1.75-3.92-3.91c0-2.16,1.75-3.92,3.92-3.92
		C531.37,234.81,533.12,236.56,533.12,238.72"/>
	<path class="st9" d="M522.72,157.85c0,0-8.22,0-9.4,13.31c-1.17,13.31,14.1,11.75,14.1,11.75s14.88,1.96,15.27-12.53
		c0.3-10.96-9.79-13.31-9.79-13.31"/>
	<path class="st1" d="M522.72,157.85c0,0-8.22,0-9.4,13.31c-1.17,13.31,14.1,11.75,14.1,11.75s14.88,1.96,15.27-12.53
		c0.3-10.96-9.79-13.31-9.79-13.31 M524.45,157.83c0,0-9.95,0.02-11.13,13.33c-1.17,13.31,14.1,11.75,14.1,11.75
		s14.88,1.96,15.27-12.53c0.3-10.96-10.9-12.88-10.9-12.88"/>
</g>
</svg>
